<svg width="200px" height="100px" overflow="scroll" role="img"><g transform="translate(13.098052024841309,29.046305656433105)"><g transform="scale(0.016405951926745516,0.016538037486218304)"><g stroke="currentColor" fill="currentColor" stroke-width="0" transform="matrix(1 0 0 -1 0 0)"><use xmlns:xlink="http://www.w3.org/1999/xlink" xlink:href="#MJMATHI-41" x="0" y="0"></use><use xmlns:xlink="http://www.w3.org/1999/xlink" xlink:href="#MJMAIN-2227" x="972" y="0"></use><use xmlns:xlink="http://www.w3.org/1999/xlink" xlink:href="#MJMATHI-42" x="1862" y="0"></use></g></g></g><g transform="translate(0,20.96053171157837)"><g transform="scale(0.016506189821182942,0.01652892561983471)"><g stroke="currentColor" fill="currentColor" stroke-width="0" transform="matrix(1 0 0 -1 0 0)"><use transform="scale(0.707)" xmlns:xlink="http://www.w3.org/1999/xlink" xlink:href="#MJMAIN-2227" x="0" y="0"></use><use transform="scale(0.707)" xmlns:xlink="http://www.w3.org/1999/xlink" xlink:href="#MJMAIN-49" x="667" y="0"></use></g></g></g><g transform="translate(57.474623680114746,22.158872604370117)"><g transform="scale(0.0163895486935867,0.01652892561983471)"><g stroke="currentColor" fill="currentColor" stroke-width="0" transform="matrix(1 0 0 -1 0 0)"><use transform="scale(0.707)" xmlns:xlink="http://www.w3.org/1999/xlink" xlink:href="#MJMATHI-41" x="0" y="0"></use><use transform="scale(0.707)" xmlns:xlink="http://www.w3.org/1999/xlink" xlink:href="#MJMAIN-2C" x="750" y="0"></use><use transform="scale(0.707)" xmlns:xlink="http://www.w3.org/1999/xlink" xlink:href="#MJMATHI-42" x="1029" y="0"></use><g transform="translate(1264,0)"><use transform="scale(0.707)" xmlns:xlink="http://www.w3.org/1999/xlink" xlink:href="#MJMAIN-66" x="353" y="0"></use><use transform="scale(0.707)" xmlns:xlink="http://www.w3.org/1999/xlink" xlink:href="#MJMAIN-6F" x="660" y="0"></use><use transform="scale(0.707)" xmlns:xlink="http://www.w3.org/1999/xlink" xlink:href="#MJMAIN-72" x="1160" y="0"></use><use transform="scale(0.707)" xmlns:xlink="http://www.w3.org/1999/xlink" xlink:href="#MJMAIN-6D" x="1553" y="0"></use><use transform="scale(0.707)" xmlns:xlink="http://www.w3.org/1999/xlink" xlink:href="#MJMAIN-75" x="2386" y="0"></use><use transform="scale(0.707)" xmlns:xlink="http://www.w3.org/1999/xlink" xlink:href="#MJMAIN-6C" x="2943" y="0"></use><use transform="scale(0.707)" xmlns:xlink="http://www.w3.org/1999/xlink" xlink:href="#MJMAIN-61" x="3221" y="0"></use><use transform="scale(0.707)" xmlns:xlink="http://www.w3.org/1999/xlink" xlink:href="#MJMAIN-65" x="3722" y="0"></use></g></g></g></g><line stroke="black" stroke-width="1" x1="13.098052024841309" y1="16.84123420715332" x2="55.474623680114746" y2="16.84123420715332"></line><g transform="translate(13.098052024841309,0)"><g transform="translate(2,13.84123420715332)"><g transform="scale(0.016,0.016538037486218304)"><g stroke="currentColor" fill="currentColor" stroke-width="0" transform="matrix(1 0 0 -1 0 0)"><use xmlns:xlink="http://www.w3.org/1999/xlink" xlink:href="#MJMATHI-41" x="0" y="0"></use></g></g></g></g><g transform="translate(44.07541370391846,0.5457553863525391)"><g transform="translate(2,13.295478820800781)"><g transform="scale(0.015810276679841896,0.016538037486218304)"><g stroke="currentColor" fill="currentColor" stroke-width="0" transform="matrix(1 0 0 -1 0 0)"><use xmlns:xlink="http://www.w3.org/1999/xlink" xlink:href="#MJMATHI-42" x="0" y="0"></use></g></g></g></g></svg>
